General
Complete name                    : The.Rainmaker.mkv
Format                           : Matroska
File size                        : 2.09 GiB
Duration                         : 2h 9mn
Overall bit rate                 : 2 305 Kbps


Video
ID                               : 1
Format                           : AVC

Codec ID                         : V_MPEG4/ISO/AVC
Duration                         : 2h 9mn
Bit rate                         : 1 808 Kbps
Width                            : 718 pixels
Height                           : 426 pixels
Display aspect ratio             : 2.35
Frame rate                       : 25.000 fps
Resolution                       : 24 bits
Colorimetry                      : 4:2:0
Scan type                        : Progressive
Bits/(Pixel*Frame)               : 0.236
Stream size                      : 1.64 GiB (78%)
Writing library                  : x264 core 79


Audio
ID                               : 2
Format                           : AC-3
Format/Info                      : Audio Coding 3
Codec ID                         : A_AC3
Duration                         : 2h 9mn
Bit rate mode                    : Constant
Bit rate                         : 448 Kbps
Channel(s)                       : 6 channels
Channel positions                : Front: L C R, Surround: L R, LFE
Sampling rate                    : 48.0 KHz
Stream size                      : 416 MiB (19%)
Language                         : English

Text #1
Language                         : Swedish

Text #2
Language                         : Danish

Text #3
Language                         : French

Text #4
Language                         : Portuguese

Text #5
Language                         : English

Text #6
Language                         : Norwegian

Text #7
Language                         : Spanish